%TF.GenerationSoftware,KiCad,Pcbnew,(5.1.9)-1*%
%TF.CreationDate,2021-03-21T11:51:09-04:00*%
%TF.ProjectId,viparTester,76697061-7254-4657-9374-65722e6b6963,rev?*%
%TF.SameCoordinates,Original*%
%TF.FileFunction,Paste,Top*%
%TF.FilePolarity,Positive*%
%FSLAX46Y46*%
G04 Gerber Fmt 4.6, Leading zero omitted, Abs format (unit mm)*
G04 Created by KiCad (PCBNEW (5.1.9)-1) date 2021-03-21 11:51:09*
%MOMM*%
%LPD*%
G01*
G04 APERTURE LIST*
G04 APERTURE END LIST*
%TO.C,D1*%
G36*
G01*
X129149000Y-96343500D02*
X127899000Y-96343500D01*
G75*
G02*
X127649000Y-96093500I0J250000D01*
G01*
X127649000Y-95168500D01*
G75*
G02*
X127899000Y-94918500I250000J0D01*
G01*
X129149000Y-94918500D01*
G75*
G02*
X129399000Y-95168500I0J-250000D01*
G01*
X129399000Y-96093500D01*
G75*
G02*
X129149000Y-96343500I-250000J0D01*
G01*
G37*
G36*
G01*
X129149000Y-93368500D02*
X127899000Y-93368500D01*
G75*
G02*
X127649000Y-93118500I0J250000D01*
G01*
X127649000Y-92193500D01*
G75*
G02*
X127899000Y-91943500I250000J0D01*
G01*
X129149000Y-91943500D01*
G75*
G02*
X129399000Y-92193500I0J-250000D01*
G01*
X129399000Y-93118500D01*
G75*
G02*
X129149000Y-93368500I-250000J0D01*
G01*
G37*
%TD*%
%TO.C,D2*%
G36*
G01*
X144875000Y-113770000D02*
X146125000Y-113770000D01*
G75*
G02*
X146375000Y-114020000I0J-250000D01*
G01*
X146375000Y-114945000D01*
G75*
G02*
X146125000Y-115195000I-250000J0D01*
G01*
X144875000Y-115195000D01*
G75*
G02*
X144625000Y-114945000I0J250000D01*
G01*
X144625000Y-114020000D01*
G75*
G02*
X144875000Y-113770000I250000J0D01*
G01*
G37*
G36*
G01*
X144875000Y-110795000D02*
X146125000Y-110795000D01*
G75*
G02*
X146375000Y-111045000I0J-250000D01*
G01*
X146375000Y-111970000D01*
G75*
G02*
X146125000Y-112220000I-250000J0D01*
G01*
X144875000Y-112220000D01*
G75*
G02*
X144625000Y-111970000I0J250000D01*
G01*
X144625000Y-111045000D01*
G75*
G02*
X144875000Y-110795000I250000J0D01*
G01*
G37*
%TD*%
%TO.C,D3*%
G36*
G01*
X153325000Y-110795000D02*
X154575000Y-110795000D01*
G75*
G02*
X154825000Y-111045000I0J-250000D01*
G01*
X154825000Y-111970000D01*
G75*
G02*
X154575000Y-112220000I-250000J0D01*
G01*
X153325000Y-112220000D01*
G75*
G02*
X153075000Y-111970000I0J250000D01*
G01*
X153075000Y-111045000D01*
G75*
G02*
X153325000Y-110795000I250000J0D01*
G01*
G37*
G36*
G01*
X153325000Y-113770000D02*
X154575000Y-113770000D01*
G75*
G02*
X154825000Y-114020000I0J-250000D01*
G01*
X154825000Y-114945000D01*
G75*
G02*
X154575000Y-115195000I-250000J0D01*
G01*
X153325000Y-115195000D01*
G75*
G02*
X153075000Y-114945000I0J250000D01*
G01*
X153075000Y-114020000D01*
G75*
G02*
X153325000Y-113770000I250000J0D01*
G01*
G37*
%TD*%
%TO.C,D4*%
G36*
G01*
X146125000Y-105432000D02*
X144875000Y-105432000D01*
G75*
G02*
X144625000Y-105182000I0J250000D01*
G01*
X144625000Y-104257000D01*
G75*
G02*
X144875000Y-104007000I250000J0D01*
G01*
X146125000Y-104007000D01*
G75*
G02*
X146375000Y-104257000I0J-250000D01*
G01*
X146375000Y-105182000D01*
G75*
G02*
X146125000Y-105432000I-250000J0D01*
G01*
G37*
G36*
G01*
X146125000Y-108407000D02*
X144875000Y-108407000D01*
G75*
G02*
X144625000Y-108157000I0J250000D01*
G01*
X144625000Y-107232000D01*
G75*
G02*
X144875000Y-106982000I250000J0D01*
G01*
X146125000Y-106982000D01*
G75*
G02*
X146375000Y-107232000I0J-250000D01*
G01*
X146375000Y-108157000D01*
G75*
G02*
X146125000Y-108407000I-250000J0D01*
G01*
G37*
%TD*%
%TO.C,D5*%
G36*
G01*
X157675000Y-108407000D02*
X156425000Y-108407000D01*
G75*
G02*
X156175000Y-108157000I0J250000D01*
G01*
X156175000Y-107232000D01*
G75*
G02*
X156425000Y-106982000I250000J0D01*
G01*
X157675000Y-106982000D01*
G75*
G02*
X157925000Y-107232000I0J-250000D01*
G01*
X157925000Y-108157000D01*
G75*
G02*
X157675000Y-108407000I-250000J0D01*
G01*
G37*
G36*
G01*
X157675000Y-105432000D02*
X156425000Y-105432000D01*
G75*
G02*
X156175000Y-105182000I0J250000D01*
G01*
X156175000Y-104257000D01*
G75*
G02*
X156425000Y-104007000I250000J0D01*
G01*
X157675000Y-104007000D01*
G75*
G02*
X157925000Y-104257000I0J-250000D01*
G01*
X157925000Y-105182000D01*
G75*
G02*
X157675000Y-105432000I-250000J0D01*
G01*
G37*
%TD*%
%TO.C,R1*%
G36*
G01*
X126736000Y-93233000D02*
X125486000Y-93233000D01*
G75*
G02*
X125236000Y-92983000I0J250000D01*
G01*
X125236000Y-92183000D01*
G75*
G02*
X125486000Y-91933000I250000J0D01*
G01*
X126736000Y-91933000D01*
G75*
G02*
X126986000Y-92183000I0J-250000D01*
G01*
X126986000Y-92983000D01*
G75*
G02*
X126736000Y-93233000I-250000J0D01*
G01*
G37*
G36*
G01*
X126736000Y-96333000D02*
X125486000Y-96333000D01*
G75*
G02*
X125236000Y-96083000I0J250000D01*
G01*
X125236000Y-95283000D01*
G75*
G02*
X125486000Y-95033000I250000J0D01*
G01*
X126736000Y-95033000D01*
G75*
G02*
X126986000Y-95283000I0J-250000D01*
G01*
X126986000Y-96083000D01*
G75*
G02*
X126736000Y-96333000I-250000J0D01*
G01*
G37*
%TD*%
%TO.C,R2*%
G36*
G01*
X147875000Y-113850000D02*
X149125000Y-113850000D01*
G75*
G02*
X149375000Y-114100000I0J-250000D01*
G01*
X149375000Y-114900000D01*
G75*
G02*
X149125000Y-115150000I-250000J0D01*
G01*
X147875000Y-115150000D01*
G75*
G02*
X147625000Y-114900000I0J250000D01*
G01*
X147625000Y-114100000D01*
G75*
G02*
X147875000Y-113850000I250000J0D01*
G01*
G37*
G36*
G01*
X147875000Y-110750000D02*
X149125000Y-110750000D01*
G75*
G02*
X149375000Y-111000000I0J-250000D01*
G01*
X149375000Y-111800000D01*
G75*
G02*
X149125000Y-112050000I-250000J0D01*
G01*
X147875000Y-112050000D01*
G75*
G02*
X147625000Y-111800000I0J250000D01*
G01*
X147625000Y-111000000D01*
G75*
G02*
X147875000Y-110750000I250000J0D01*
G01*
G37*
%TD*%
%TO.C,R3*%
G36*
G01*
X156375000Y-110750000D02*
X157625000Y-110750000D01*
G75*
G02*
X157875000Y-111000000I0J-250000D01*
G01*
X157875000Y-111800000D01*
G75*
G02*
X157625000Y-112050000I-250000J0D01*
G01*
X156375000Y-112050000D01*
G75*
G02*
X156125000Y-111800000I0J250000D01*
G01*
X156125000Y-111000000D01*
G75*
G02*
X156375000Y-110750000I250000J0D01*
G01*
G37*
G36*
G01*
X156375000Y-113850000D02*
X157625000Y-113850000D01*
G75*
G02*
X157875000Y-114100000I0J-250000D01*
G01*
X157875000Y-114900000D01*
G75*
G02*
X157625000Y-115150000I-250000J0D01*
G01*
X156375000Y-115150000D01*
G75*
G02*
X156125000Y-114900000I0J250000D01*
G01*
X156125000Y-114100000D01*
G75*
G02*
X156375000Y-113850000I250000J0D01*
G01*
G37*
%TD*%
%TO.C,R4*%
G36*
G01*
X149125000Y-105352000D02*
X147875000Y-105352000D01*
G75*
G02*
X147625000Y-105102000I0J250000D01*
G01*
X147625000Y-104302000D01*
G75*
G02*
X147875000Y-104052000I250000J0D01*
G01*
X149125000Y-104052000D01*
G75*
G02*
X149375000Y-104302000I0J-250000D01*
G01*
X149375000Y-105102000D01*
G75*
G02*
X149125000Y-105352000I-250000J0D01*
G01*
G37*
G36*
G01*
X149125000Y-108452000D02*
X147875000Y-108452000D01*
G75*
G02*
X147625000Y-108202000I0J250000D01*
G01*
X147625000Y-107402000D01*
G75*
G02*
X147875000Y-107152000I250000J0D01*
G01*
X149125000Y-107152000D01*
G75*
G02*
X149375000Y-107402000I0J-250000D01*
G01*
X149375000Y-108202000D01*
G75*
G02*
X149125000Y-108452000I-250000J0D01*
G01*
G37*
%TD*%
%TO.C,R5*%
G36*
G01*
X154625000Y-108452000D02*
X153375000Y-108452000D01*
G75*
G02*
X153125000Y-108202000I0J250000D01*
G01*
X153125000Y-107402000D01*
G75*
G02*
X153375000Y-107152000I250000J0D01*
G01*
X154625000Y-107152000D01*
G75*
G02*
X154875000Y-107402000I0J-250000D01*
G01*
X154875000Y-108202000D01*
G75*
G02*
X154625000Y-108452000I-250000J0D01*
G01*
G37*
G36*
G01*
X154625000Y-105352000D02*
X153375000Y-105352000D01*
G75*
G02*
X153125000Y-105102000I0J250000D01*
G01*
X153125000Y-104302000D01*
G75*
G02*
X153375000Y-104052000I250000J0D01*
G01*
X154625000Y-104052000D01*
G75*
G02*
X154875000Y-104302000I0J-250000D01*
G01*
X154875000Y-105102000D01*
G75*
G02*
X154625000Y-105352000I-250000J0D01*
G01*
G37*
%TD*%
%TO.C,R6*%
G36*
G01*
X134625000Y-108200000D02*
X133375000Y-108200000D01*
G75*
G02*
X133125000Y-107950000I0J250000D01*
G01*
X133125000Y-107150000D01*
G75*
G02*
X133375000Y-106900000I250000J0D01*
G01*
X134625000Y-106900000D01*
G75*
G02*
X134875000Y-107150000I0J-250000D01*
G01*
X134875000Y-107950000D01*
G75*
G02*
X134625000Y-108200000I-250000J0D01*
G01*
G37*
G36*
G01*
X134625000Y-105100000D02*
X133375000Y-105100000D01*
G75*
G02*
X133125000Y-104850000I0J250000D01*
G01*
X133125000Y-104050000D01*
G75*
G02*
X133375000Y-103800000I250000J0D01*
G01*
X134625000Y-103800000D01*
G75*
G02*
X134875000Y-104050000I0J-250000D01*
G01*
X134875000Y-104850000D01*
G75*
G02*
X134625000Y-105100000I-250000J0D01*
G01*
G37*
%TD*%
%TO.C,U2*%
G36*
G01*
X130255000Y-102550000D02*
X130555000Y-102550000D01*
G75*
G02*
X130705000Y-102700000I0J-150000D01*
G01*
X130705000Y-104350000D01*
G75*
G02*
X130555000Y-104500000I-150000J0D01*
G01*
X130255000Y-104500000D01*
G75*
G02*
X130105000Y-104350000I0J150000D01*
G01*
X130105000Y-102700000D01*
G75*
G02*
X130255000Y-102550000I150000J0D01*
G01*
G37*
G36*
G01*
X128985000Y-102550000D02*
X129285000Y-102550000D01*
G75*
G02*
X129435000Y-102700000I0J-150000D01*
G01*
X129435000Y-104350000D01*
G75*
G02*
X129285000Y-104500000I-150000J0D01*
G01*
X128985000Y-104500000D01*
G75*
G02*
X128835000Y-104350000I0J150000D01*
G01*
X128835000Y-102700000D01*
G75*
G02*
X128985000Y-102550000I150000J0D01*
G01*
G37*
G36*
G01*
X127715000Y-102550000D02*
X128015000Y-102550000D01*
G75*
G02*
X128165000Y-102700000I0J-150000D01*
G01*
X128165000Y-104350000D01*
G75*
G02*
X128015000Y-104500000I-150000J0D01*
G01*
X127715000Y-104500000D01*
G75*
G02*
X127565000Y-104350000I0J150000D01*
G01*
X127565000Y-102700000D01*
G75*
G02*
X127715000Y-102550000I150000J0D01*
G01*
G37*
G36*
G01*
X126445000Y-102550000D02*
X126745000Y-102550000D01*
G75*
G02*
X126895000Y-102700000I0J-150000D01*
G01*
X126895000Y-104350000D01*
G75*
G02*
X126745000Y-104500000I-150000J0D01*
G01*
X126445000Y-104500000D01*
G75*
G02*
X126295000Y-104350000I0J150000D01*
G01*
X126295000Y-102700000D01*
G75*
G02*
X126445000Y-102550000I150000J0D01*
G01*
G37*
G36*
G01*
X126445000Y-107500000D02*
X126745000Y-107500000D01*
G75*
G02*
X126895000Y-107650000I0J-150000D01*
G01*
X126895000Y-109300000D01*
G75*
G02*
X126745000Y-109450000I-150000J0D01*
G01*
X126445000Y-109450000D01*
G75*
G02*
X126295000Y-109300000I0J150000D01*
G01*
X126295000Y-107650000D01*
G75*
G02*
X126445000Y-107500000I150000J0D01*
G01*
G37*
G36*
G01*
X127715000Y-107500000D02*
X128015000Y-107500000D01*
G75*
G02*
X128165000Y-107650000I0J-150000D01*
G01*
X128165000Y-109300000D01*
G75*
G02*
X128015000Y-109450000I-150000J0D01*
G01*
X127715000Y-109450000D01*
G75*
G02*
X127565000Y-109300000I0J150000D01*
G01*
X127565000Y-107650000D01*
G75*
G02*
X127715000Y-107500000I150000J0D01*
G01*
G37*
G36*
G01*
X128985000Y-107500000D02*
X129285000Y-107500000D01*
G75*
G02*
X129435000Y-107650000I0J-150000D01*
G01*
X129435000Y-109300000D01*
G75*
G02*
X129285000Y-109450000I-150000J0D01*
G01*
X128985000Y-109450000D01*
G75*
G02*
X128835000Y-109300000I0J150000D01*
G01*
X128835000Y-107650000D01*
G75*
G02*
X128985000Y-107500000I150000J0D01*
G01*
G37*
G36*
G01*
X130255000Y-107500000D02*
X130555000Y-107500000D01*
G75*
G02*
X130705000Y-107650000I0J-150000D01*
G01*
X130705000Y-109300000D01*
G75*
G02*
X130555000Y-109450000I-150000J0D01*
G01*
X130255000Y-109450000D01*
G75*
G02*
X130105000Y-109300000I0J150000D01*
G01*
X130105000Y-107650000D01*
G75*
G02*
X130255000Y-107500000I150000J0D01*
G01*
G37*
%TD*%
%TO.C,D6*%
G36*
G01*
X130570001Y-95312500D02*
X131820001Y-95312500D01*
G75*
G02*
X132070001Y-95562500I0J-250000D01*
G01*
X132070001Y-96487500D01*
G75*
G02*
X131820001Y-96737500I-250000J0D01*
G01*
X130570001Y-96737500D01*
G75*
G02*
X130320001Y-96487500I0J250000D01*
G01*
X130320001Y-95562500D01*
G75*
G02*
X130570001Y-95312500I250000J0D01*
G01*
G37*
G36*
G01*
X130570001Y-98287500D02*
X131820001Y-98287500D01*
G75*
G02*
X132070001Y-98537500I0J-250000D01*
G01*
X132070001Y-99462500D01*
G75*
G02*
X131820001Y-99712500I-250000J0D01*
G01*
X130570001Y-99712500D01*
G75*
G02*
X130320001Y-99462500I0J250000D01*
G01*
X130320001Y-98537500D01*
G75*
G02*
X130570001Y-98287500I250000J0D01*
G01*
G37*
%TD*%
%TO.C,R7*%
G36*
G01*
X132875000Y-95300000D02*
X134125000Y-95300000D01*
G75*
G02*
X134375000Y-95550000I0J-250000D01*
G01*
X134375000Y-96350000D01*
G75*
G02*
X134125000Y-96600000I-250000J0D01*
G01*
X132875000Y-96600000D01*
G75*
G02*
X132625000Y-96350000I0J250000D01*
G01*
X132625000Y-95550000D01*
G75*
G02*
X132875000Y-95300000I250000J0D01*
G01*
G37*
G36*
G01*
X132875000Y-98400000D02*
X134125000Y-98400000D01*
G75*
G02*
X134375000Y-98650000I0J-250000D01*
G01*
X134375000Y-99450000D01*
G75*
G02*
X134125000Y-99700000I-250000J0D01*
G01*
X132875000Y-99700000D01*
G75*
G02*
X132625000Y-99450000I0J250000D01*
G01*
X132625000Y-98650000D01*
G75*
G02*
X132875000Y-98400000I250000J0D01*
G01*
G37*
%TD*%
%TO.C,C3*%
G36*
G01*
X117160000Y-116824999D02*
X117160000Y-118125001D01*
G75*
G02*
X116910001Y-118375000I-249999J0D01*
G01*
X116084999Y-118375000D01*
G75*
G02*
X115835000Y-118125001I0J249999D01*
G01*
X115835000Y-116824999D01*
G75*
G02*
X116084999Y-116575000I249999J0D01*
G01*
X116910001Y-116575000D01*
G75*
G02*
X117160000Y-116824999I0J-249999D01*
G01*
G37*
G36*
G01*
X114035000Y-116824999D02*
X114035000Y-118125001D01*
G75*
G02*
X113785001Y-118375000I-249999J0D01*
G01*
X112959999Y-118375000D01*
G75*
G02*
X112710000Y-118125001I0J249999D01*
G01*
X112710000Y-116824999D01*
G75*
G02*
X112959999Y-116575000I249999J0D01*
G01*
X113785001Y-116575000D01*
G75*
G02*
X114035000Y-116824999I0J-249999D01*
G01*
G37*
%TD*%
%TO.C,C4*%
G36*
G01*
X122189001Y-104548500D02*
X120888999Y-104548500D01*
G75*
G02*
X120639000Y-104298501I0J249999D01*
G01*
X120639000Y-103473499D01*
G75*
G02*
X120888999Y-103223500I249999J0D01*
G01*
X122189001Y-103223500D01*
G75*
G02*
X122439000Y-103473499I0J-249999D01*
G01*
X122439000Y-104298501D01*
G75*
G02*
X122189001Y-104548500I-249999J0D01*
G01*
G37*
G36*
G01*
X122189001Y-107673500D02*
X120888999Y-107673500D01*
G75*
G02*
X120639000Y-107423501I0J249999D01*
G01*
X120639000Y-106598499D01*
G75*
G02*
X120888999Y-106348500I249999J0D01*
G01*
X122189001Y-106348500D01*
G75*
G02*
X122439000Y-106598499I0J-249999D01*
G01*
X122439000Y-107423501D01*
G75*
G02*
X122189001Y-107673500I-249999J0D01*
G01*
G37*
%TD*%
M02*
