M48
; DRILL file {KiCad (5.1.9)-1} date 03/21/21 11:51:18
; FORMAT={-:-/ absolute / inch / decimal}
; #@! TF.CreationDate,2021-03-21T11:51:18-04:00
; #@! TF.GenerationSoftware,Kicad,Pcbnew,(5.1.9)-1
FMAT,2
INCH
T1C0.0295
T2C0.0315
T3C0.0394
%
G90
G05
T1
X4.4866Y-4.2126
X4.5366Y-4.2126
X4.5866Y-4.2126
T2
X4.4882Y-4.4685
X4.5079Y-3.937
X4.5669Y-4.4685
X4.5866Y-3.937
T3
X4.4Y-3.7
X4.5063Y-3.7008
X4.6063Y-3.7008
X4.675Y-4.805
X4.725Y-3.7
X4.775Y-4.805
X4.875Y-4.805
X4.995Y-4.535
X5.095Y-4.535
X5.195Y-4.535
X5.295Y-4.535
X5.395Y-4.535
X5.46Y-3.865
X5.465Y-4.805
X5.495Y-4.535
X5.56Y-3.865
X5.565Y-4.805
X5.66Y-3.865
X5.665Y-4.805
X5.76Y-3.865
X5.765Y-4.805
T0
M30
