%TF.GenerationSoftware,KiCad,Pcbnew,(5.1.9)-1*%
%TF.CreationDate,2021-03-21T11:51:09-04:00*%
%TF.ProjectId,viparTester,76697061-7254-4657-9374-65722e6b6963,rev?*%
%TF.SameCoordinates,Original*%
%TF.FileFunction,Legend,Top*%
%TF.FilePolarity,Positive*%
%FSLAX46Y46*%
G04 Gerber Fmt 4.6, Leading zero omitted, Abs format (unit mm)*
G04 Created by KiCad (PCBNEW (5.1.9)-1) date 2021-03-21 11:51:09*
%MOMM*%
%LPD*%
G01*
G04 APERTURE LIST*
%ADD10C,0.120000*%
%ADD11C,0.150000*%
G04 APERTURE END LIST*
D10*
%TO.C,D1*%
X127389000Y-92543500D02*
X127389000Y-96603500D01*
X127389000Y-96603500D02*
X129659000Y-96603500D01*
X129659000Y-96603500D02*
X129659000Y-92543500D01*
%TO.C,D2*%
X144365000Y-110535000D02*
X144365000Y-114595000D01*
X146635000Y-110535000D02*
X144365000Y-110535000D01*
X146635000Y-114595000D02*
X146635000Y-110535000D01*
%TO.C,D3*%
X155085000Y-114595000D02*
X155085000Y-110535000D01*
X155085000Y-110535000D02*
X152815000Y-110535000D01*
X152815000Y-110535000D02*
X152815000Y-114595000D01*
%TO.C,D4*%
X146635000Y-108667000D02*
X146635000Y-104607000D01*
X144365000Y-108667000D02*
X146635000Y-108667000D01*
X144365000Y-104607000D02*
X144365000Y-108667000D01*
%TO.C,D5*%
X155915000Y-104607000D02*
X155915000Y-108667000D01*
X155915000Y-108667000D02*
X158185000Y-108667000D01*
X158185000Y-108667000D02*
X158185000Y-104607000D01*
%TO.C,R1*%
X127021000Y-94860064D02*
X127021000Y-93405936D01*
X125201000Y-94860064D02*
X125201000Y-93405936D01*
%TO.C,R2*%
X147590000Y-112222936D02*
X147590000Y-113677064D01*
X149410000Y-112222936D02*
X149410000Y-113677064D01*
%TO.C,R3*%
X157910000Y-112222936D02*
X157910000Y-113677064D01*
X156090000Y-112222936D02*
X156090000Y-113677064D01*
%TO.C,R4*%
X149410000Y-106979064D02*
X149410000Y-105524936D01*
X147590000Y-106979064D02*
X147590000Y-105524936D01*
%TO.C,R5*%
X153090000Y-106979064D02*
X153090000Y-105524936D01*
X154910000Y-106979064D02*
X154910000Y-105524936D01*
%TO.C,R6*%
X133090000Y-106727064D02*
X133090000Y-105272936D01*
X134910000Y-106727064D02*
X134910000Y-105272936D01*
%TO.C,U1*%
X117030000Y-105150000D02*
X113430000Y-105150000D01*
X117068478Y-105161522D02*
G75*
G02*
X115230000Y-109600000I-1838478J-1838478D01*
G01*
X113391522Y-105161522D02*
G75*
G03*
X115230000Y-109600000I1838478J-1838478D01*
G01*
%TO.C,U2*%
X125940000Y-106000000D02*
X125940000Y-107950000D01*
X125940000Y-106000000D02*
X125940000Y-104050000D01*
X131060000Y-106000000D02*
X131060000Y-107950000D01*
X131060000Y-106000000D02*
X131060000Y-102550000D01*
%TO.C,J1*%
X122555000Y-120717000D02*
X122555000Y-123377000D01*
X122555000Y-120717000D02*
X117415000Y-120717000D01*
X117415000Y-120717000D02*
X117415000Y-123377000D01*
X122555000Y-123377000D02*
X117415000Y-123377000D01*
X125155000Y-123377000D02*
X123825000Y-123377000D01*
X125155000Y-122047000D02*
X125155000Y-123377000D01*
%TO.C,J2*%
X147634000Y-98171000D02*
X147634000Y-99501000D01*
X147634000Y-99501000D02*
X146304000Y-99501000D01*
X145034000Y-99501000D02*
X137354000Y-99501000D01*
X137354000Y-96841000D02*
X137354000Y-99501000D01*
X145034000Y-96841000D02*
X137354000Y-96841000D01*
X145034000Y-96841000D02*
X145034000Y-99501000D01*
%TO.C,J3*%
X115730000Y-92670000D02*
X115730000Y-95330000D01*
X115730000Y-92670000D02*
X113130000Y-92670000D01*
X113130000Y-92670000D02*
X113130000Y-95330000D01*
X115730000Y-95330000D02*
X113130000Y-95330000D01*
X118330000Y-95330000D02*
X117000000Y-95330000D01*
X118330000Y-94000000D02*
X118330000Y-95330000D01*
%TO.C,J4*%
X140081000Y-123377000D02*
X140081000Y-120717000D01*
X140081000Y-123377000D02*
X147761000Y-123377000D01*
X147761000Y-123377000D02*
X147761000Y-120717000D01*
X140081000Y-120717000D02*
X147761000Y-120717000D01*
X137481000Y-120717000D02*
X138811000Y-120717000D01*
X137481000Y-122047000D02*
X137481000Y-120717000D01*
%TO.C,J5*%
X128143000Y-116519000D02*
X128143000Y-113859000D01*
X128143000Y-116519000D02*
X140903000Y-116519000D01*
X140903000Y-116519000D02*
X140903000Y-113859000D01*
X128143000Y-113859000D02*
X140903000Y-113859000D01*
X125543000Y-113859000D02*
X126873000Y-113859000D01*
X125543000Y-115189000D02*
X125543000Y-113859000D01*
%TO.C,D6*%
X132330001Y-99112500D02*
X132330001Y-95052500D01*
X132330001Y-95052500D02*
X130060001Y-95052500D01*
X130060001Y-95052500D02*
X130060001Y-99112500D01*
%TO.C,R7*%
X134410000Y-96772936D02*
X134410000Y-98227064D01*
X132590000Y-96772936D02*
X132590000Y-98227064D01*
%TO.C,C1*%
X118120000Y-100000000D02*
G75*
G03*
X118120000Y-100000000I-2620000J0D01*
G01*
X115500000Y-101040000D02*
X115500000Y-102580000D01*
X115500000Y-97420000D02*
X115500000Y-98960000D01*
X115540000Y-101040000D02*
X115540000Y-102580000D01*
X115540000Y-97420000D02*
X115540000Y-98960000D01*
X115580000Y-97421000D02*
X115580000Y-98960000D01*
X115580000Y-101040000D02*
X115580000Y-102579000D01*
X115620000Y-97422000D02*
X115620000Y-98960000D01*
X115620000Y-101040000D02*
X115620000Y-102578000D01*
X115660000Y-97424000D02*
X115660000Y-98960000D01*
X115660000Y-101040000D02*
X115660000Y-102576000D01*
X115700000Y-97427000D02*
X115700000Y-98960000D01*
X115700000Y-101040000D02*
X115700000Y-102573000D01*
X115740000Y-97431000D02*
X115740000Y-98960000D01*
X115740000Y-101040000D02*
X115740000Y-102569000D01*
X115780000Y-97435000D02*
X115780000Y-98960000D01*
X115780000Y-101040000D02*
X115780000Y-102565000D01*
X115820000Y-97439000D02*
X115820000Y-98960000D01*
X115820000Y-101040000D02*
X115820000Y-102561000D01*
X115860000Y-97444000D02*
X115860000Y-98960000D01*
X115860000Y-101040000D02*
X115860000Y-102556000D01*
X115900000Y-97450000D02*
X115900000Y-98960000D01*
X115900000Y-101040000D02*
X115900000Y-102550000D01*
X115940000Y-97457000D02*
X115940000Y-98960000D01*
X115940000Y-101040000D02*
X115940000Y-102543000D01*
X115980000Y-97464000D02*
X115980000Y-98960000D01*
X115980000Y-101040000D02*
X115980000Y-102536000D01*
X116020000Y-97472000D02*
X116020000Y-98960000D01*
X116020000Y-101040000D02*
X116020000Y-102528000D01*
X116060000Y-97480000D02*
X116060000Y-98960000D01*
X116060000Y-101040000D02*
X116060000Y-102520000D01*
X116100000Y-97489000D02*
X116100000Y-98960000D01*
X116100000Y-101040000D02*
X116100000Y-102511000D01*
X116140000Y-97499000D02*
X116140000Y-98960000D01*
X116140000Y-101040000D02*
X116140000Y-102501000D01*
X116180000Y-97509000D02*
X116180000Y-98960000D01*
X116180000Y-101040000D02*
X116180000Y-102491000D01*
X116221000Y-97520000D02*
X116221000Y-98960000D01*
X116221000Y-101040000D02*
X116221000Y-102480000D01*
X116261000Y-97532000D02*
X116261000Y-98960000D01*
X116261000Y-101040000D02*
X116261000Y-102468000D01*
X116301000Y-97545000D02*
X116301000Y-98960000D01*
X116301000Y-101040000D02*
X116301000Y-102455000D01*
X116341000Y-97558000D02*
X116341000Y-98960000D01*
X116341000Y-101040000D02*
X116341000Y-102442000D01*
X116381000Y-97572000D02*
X116381000Y-98960000D01*
X116381000Y-101040000D02*
X116381000Y-102428000D01*
X116421000Y-97586000D02*
X116421000Y-98960000D01*
X116421000Y-101040000D02*
X116421000Y-102414000D01*
X116461000Y-97602000D02*
X116461000Y-98960000D01*
X116461000Y-101040000D02*
X116461000Y-102398000D01*
X116501000Y-97618000D02*
X116501000Y-98960000D01*
X116501000Y-101040000D02*
X116501000Y-102382000D01*
X116541000Y-97635000D02*
X116541000Y-98960000D01*
X116541000Y-101040000D02*
X116541000Y-102365000D01*
X116581000Y-97652000D02*
X116581000Y-98960000D01*
X116581000Y-101040000D02*
X116581000Y-102348000D01*
X116621000Y-97671000D02*
X116621000Y-98960000D01*
X116621000Y-101040000D02*
X116621000Y-102329000D01*
X116661000Y-97690000D02*
X116661000Y-98960000D01*
X116661000Y-101040000D02*
X116661000Y-102310000D01*
X116701000Y-97710000D02*
X116701000Y-98960000D01*
X116701000Y-101040000D02*
X116701000Y-102290000D01*
X116741000Y-97732000D02*
X116741000Y-98960000D01*
X116741000Y-101040000D02*
X116741000Y-102268000D01*
X116781000Y-97753000D02*
X116781000Y-98960000D01*
X116781000Y-101040000D02*
X116781000Y-102247000D01*
X116821000Y-97776000D02*
X116821000Y-98960000D01*
X116821000Y-101040000D02*
X116821000Y-102224000D01*
X116861000Y-97800000D02*
X116861000Y-98960000D01*
X116861000Y-101040000D02*
X116861000Y-102200000D01*
X116901000Y-97825000D02*
X116901000Y-98960000D01*
X116901000Y-101040000D02*
X116901000Y-102175000D01*
X116941000Y-97851000D02*
X116941000Y-98960000D01*
X116941000Y-101040000D02*
X116941000Y-102149000D01*
X116981000Y-97878000D02*
X116981000Y-98960000D01*
X116981000Y-101040000D02*
X116981000Y-102122000D01*
X117021000Y-97905000D02*
X117021000Y-98960000D01*
X117021000Y-101040000D02*
X117021000Y-102095000D01*
X117061000Y-97935000D02*
X117061000Y-98960000D01*
X117061000Y-101040000D02*
X117061000Y-102065000D01*
X117101000Y-97965000D02*
X117101000Y-98960000D01*
X117101000Y-101040000D02*
X117101000Y-102035000D01*
X117141000Y-97996000D02*
X117141000Y-98960000D01*
X117141000Y-101040000D02*
X117141000Y-102004000D01*
X117181000Y-98029000D02*
X117181000Y-98960000D01*
X117181000Y-101040000D02*
X117181000Y-101971000D01*
X117221000Y-98063000D02*
X117221000Y-98960000D01*
X117221000Y-101040000D02*
X117221000Y-101937000D01*
X117261000Y-98099000D02*
X117261000Y-98960000D01*
X117261000Y-101040000D02*
X117261000Y-101901000D01*
X117301000Y-98136000D02*
X117301000Y-98960000D01*
X117301000Y-101040000D02*
X117301000Y-101864000D01*
X117341000Y-98174000D02*
X117341000Y-98960000D01*
X117341000Y-101040000D02*
X117341000Y-101826000D01*
X117381000Y-98215000D02*
X117381000Y-98960000D01*
X117381000Y-101040000D02*
X117381000Y-101785000D01*
X117421000Y-98257000D02*
X117421000Y-98960000D01*
X117421000Y-101040000D02*
X117421000Y-101743000D01*
X117461000Y-98301000D02*
X117461000Y-98960000D01*
X117461000Y-101040000D02*
X117461000Y-101699000D01*
X117501000Y-98347000D02*
X117501000Y-98960000D01*
X117501000Y-101040000D02*
X117501000Y-101653000D01*
X117541000Y-98395000D02*
X117541000Y-101605000D01*
X117581000Y-98446000D02*
X117581000Y-101554000D01*
X117621000Y-98500000D02*
X117621000Y-101500000D01*
X117661000Y-98557000D02*
X117661000Y-101443000D01*
X117701000Y-98617000D02*
X117701000Y-101383000D01*
X117741000Y-98681000D02*
X117741000Y-101319000D01*
X117781000Y-98749000D02*
X117781000Y-101251000D01*
X117821000Y-98822000D02*
X117821000Y-101178000D01*
X117861000Y-98902000D02*
X117861000Y-101098000D01*
X117901000Y-98989000D02*
X117901000Y-101011000D01*
X117941000Y-99085000D02*
X117941000Y-100915000D01*
X117981000Y-99195000D02*
X117981000Y-100805000D01*
X118021000Y-99323000D02*
X118021000Y-100677000D01*
X118061000Y-99482000D02*
X118061000Y-100518000D01*
X118101000Y-99716000D02*
X118101000Y-100284000D01*
X112695225Y-98525000D02*
X113195225Y-98525000D01*
X112945225Y-98275000D02*
X112945225Y-98775000D01*
%TO.C,C2*%
X117554775Y-115225000D02*
X117554775Y-114725000D01*
X117804775Y-114975000D02*
X117304775Y-114975000D01*
X112399000Y-113784000D02*
X112399000Y-113216000D01*
X112439000Y-114018000D02*
X112439000Y-112982000D01*
X112479000Y-114177000D02*
X112479000Y-112823000D01*
X112519000Y-114305000D02*
X112519000Y-112695000D01*
X112559000Y-114415000D02*
X112559000Y-112585000D01*
X112599000Y-114511000D02*
X112599000Y-112489000D01*
X112639000Y-114598000D02*
X112639000Y-112402000D01*
X112679000Y-114678000D02*
X112679000Y-112322000D01*
X112719000Y-114751000D02*
X112719000Y-112249000D01*
X112759000Y-114819000D02*
X112759000Y-112181000D01*
X112799000Y-114883000D02*
X112799000Y-112117000D01*
X112839000Y-114943000D02*
X112839000Y-112057000D01*
X112879000Y-115000000D02*
X112879000Y-112000000D01*
X112919000Y-115054000D02*
X112919000Y-111946000D01*
X112959000Y-115105000D02*
X112959000Y-111895000D01*
X112999000Y-112460000D02*
X112999000Y-111847000D01*
X112999000Y-115153000D02*
X112999000Y-114540000D01*
X113039000Y-112460000D02*
X113039000Y-111801000D01*
X113039000Y-115199000D02*
X113039000Y-114540000D01*
X113079000Y-112460000D02*
X113079000Y-111757000D01*
X113079000Y-115243000D02*
X113079000Y-114540000D01*
X113119000Y-112460000D02*
X113119000Y-111715000D01*
X113119000Y-115285000D02*
X113119000Y-114540000D01*
X113159000Y-112460000D02*
X113159000Y-111674000D01*
X113159000Y-115326000D02*
X113159000Y-114540000D01*
X113199000Y-112460000D02*
X113199000Y-111636000D01*
X113199000Y-115364000D02*
X113199000Y-114540000D01*
X113239000Y-112460000D02*
X113239000Y-111599000D01*
X113239000Y-115401000D02*
X113239000Y-114540000D01*
X113279000Y-112460000D02*
X113279000Y-111563000D01*
X113279000Y-115437000D02*
X113279000Y-114540000D01*
X113319000Y-112460000D02*
X113319000Y-111529000D01*
X113319000Y-115471000D02*
X113319000Y-114540000D01*
X113359000Y-112460000D02*
X113359000Y-111496000D01*
X113359000Y-115504000D02*
X113359000Y-114540000D01*
X113399000Y-112460000D02*
X113399000Y-111465000D01*
X113399000Y-115535000D02*
X113399000Y-114540000D01*
X113439000Y-112460000D02*
X113439000Y-111435000D01*
X113439000Y-115565000D02*
X113439000Y-114540000D01*
X113479000Y-112460000D02*
X113479000Y-111405000D01*
X113479000Y-115595000D02*
X113479000Y-114540000D01*
X113519000Y-112460000D02*
X113519000Y-111378000D01*
X113519000Y-115622000D02*
X113519000Y-114540000D01*
X113559000Y-112460000D02*
X113559000Y-111351000D01*
X113559000Y-115649000D02*
X113559000Y-114540000D01*
X113599000Y-112460000D02*
X113599000Y-111325000D01*
X113599000Y-115675000D02*
X113599000Y-114540000D01*
X113639000Y-112460000D02*
X113639000Y-111300000D01*
X113639000Y-115700000D02*
X113639000Y-114540000D01*
X113679000Y-112460000D02*
X113679000Y-111276000D01*
X113679000Y-115724000D02*
X113679000Y-114540000D01*
X113719000Y-112460000D02*
X113719000Y-111253000D01*
X113719000Y-115747000D02*
X113719000Y-114540000D01*
X113759000Y-112460000D02*
X113759000Y-111232000D01*
X113759000Y-115768000D02*
X113759000Y-114540000D01*
X113799000Y-112460000D02*
X113799000Y-111210000D01*
X113799000Y-115790000D02*
X113799000Y-114540000D01*
X113839000Y-112460000D02*
X113839000Y-111190000D01*
X113839000Y-115810000D02*
X113839000Y-114540000D01*
X113879000Y-112460000D02*
X113879000Y-111171000D01*
X113879000Y-115829000D02*
X113879000Y-114540000D01*
X113919000Y-112460000D02*
X113919000Y-111152000D01*
X113919000Y-115848000D02*
X113919000Y-114540000D01*
X113959000Y-112460000D02*
X113959000Y-111135000D01*
X113959000Y-115865000D02*
X113959000Y-114540000D01*
X113999000Y-112460000D02*
X113999000Y-111118000D01*
X113999000Y-115882000D02*
X113999000Y-114540000D01*
X114039000Y-112460000D02*
X114039000Y-111102000D01*
X114039000Y-115898000D02*
X114039000Y-114540000D01*
X114079000Y-112460000D02*
X114079000Y-111086000D01*
X114079000Y-115914000D02*
X114079000Y-114540000D01*
X114119000Y-112460000D02*
X114119000Y-111072000D01*
X114119000Y-115928000D02*
X114119000Y-114540000D01*
X114159000Y-112460000D02*
X114159000Y-111058000D01*
X114159000Y-115942000D02*
X114159000Y-114540000D01*
X114199000Y-112460000D02*
X114199000Y-111045000D01*
X114199000Y-115955000D02*
X114199000Y-114540000D01*
X114239000Y-112460000D02*
X114239000Y-111032000D01*
X114239000Y-115968000D02*
X114239000Y-114540000D01*
X114279000Y-112460000D02*
X114279000Y-111020000D01*
X114279000Y-115980000D02*
X114279000Y-114540000D01*
X114320000Y-112460000D02*
X114320000Y-111009000D01*
X114320000Y-115991000D02*
X114320000Y-114540000D01*
X114360000Y-112460000D02*
X114360000Y-110999000D01*
X114360000Y-116001000D02*
X114360000Y-114540000D01*
X114400000Y-112460000D02*
X114400000Y-110989000D01*
X114400000Y-116011000D02*
X114400000Y-114540000D01*
X114440000Y-112460000D02*
X114440000Y-110980000D01*
X114440000Y-116020000D02*
X114440000Y-114540000D01*
X114480000Y-112460000D02*
X114480000Y-110972000D01*
X114480000Y-116028000D02*
X114480000Y-114540000D01*
X114520000Y-112460000D02*
X114520000Y-110964000D01*
X114520000Y-116036000D02*
X114520000Y-114540000D01*
X114560000Y-112460000D02*
X114560000Y-110957000D01*
X114560000Y-116043000D02*
X114560000Y-114540000D01*
X114600000Y-112460000D02*
X114600000Y-110950000D01*
X114600000Y-116050000D02*
X114600000Y-114540000D01*
X114640000Y-112460000D02*
X114640000Y-110944000D01*
X114640000Y-116056000D02*
X114640000Y-114540000D01*
X114680000Y-112460000D02*
X114680000Y-110939000D01*
X114680000Y-116061000D02*
X114680000Y-114540000D01*
X114720000Y-112460000D02*
X114720000Y-110935000D01*
X114720000Y-116065000D02*
X114720000Y-114540000D01*
X114760000Y-112460000D02*
X114760000Y-110931000D01*
X114760000Y-116069000D02*
X114760000Y-114540000D01*
X114800000Y-112460000D02*
X114800000Y-110927000D01*
X114800000Y-116073000D02*
X114800000Y-114540000D01*
X114840000Y-112460000D02*
X114840000Y-110924000D01*
X114840000Y-116076000D02*
X114840000Y-114540000D01*
X114880000Y-112460000D02*
X114880000Y-110922000D01*
X114880000Y-116078000D02*
X114880000Y-114540000D01*
X114920000Y-112460000D02*
X114920000Y-110921000D01*
X114920000Y-116079000D02*
X114920000Y-114540000D01*
X114960000Y-116080000D02*
X114960000Y-114540000D01*
X114960000Y-112460000D02*
X114960000Y-110920000D01*
X115000000Y-116080000D02*
X115000000Y-114540000D01*
X115000000Y-112460000D02*
X115000000Y-110920000D01*
X117620000Y-113500000D02*
G75*
G03*
X117620000Y-113500000I-2620000J0D01*
G01*
%TO.C,C3*%
X115646252Y-116565000D02*
X114223748Y-116565000D01*
X115646252Y-118385000D02*
X114223748Y-118385000D01*
%TO.C,C4*%
X120629000Y-106159752D02*
X120629000Y-104737248D01*
X122449000Y-106159752D02*
X122449000Y-104737248D01*
%TO.C,D1*%
D11*
X127156380Y-94881595D02*
X126156380Y-94881595D01*
X126156380Y-94643500D01*
X126204000Y-94500642D01*
X126299238Y-94405404D01*
X126394476Y-94357785D01*
X126584952Y-94310166D01*
X126727809Y-94310166D01*
X126918285Y-94357785D01*
X127013523Y-94405404D01*
X127108761Y-94500642D01*
X127156380Y-94643500D01*
X127156380Y-94881595D01*
X127156380Y-93357785D02*
X127156380Y-93929214D01*
X127156380Y-93643500D02*
X126156380Y-93643500D01*
X126299238Y-93738738D01*
X126394476Y-93833976D01*
X126442095Y-93929214D01*
%TO.C,D2*%
X147772380Y-113733095D02*
X146772380Y-113733095D01*
X146772380Y-113495000D01*
X146820000Y-113352142D01*
X146915238Y-113256904D01*
X147010476Y-113209285D01*
X147200952Y-113161666D01*
X147343809Y-113161666D01*
X147534285Y-113209285D01*
X147629523Y-113256904D01*
X147724761Y-113352142D01*
X147772380Y-113495000D01*
X147772380Y-113733095D01*
X146867619Y-112780714D02*
X146820000Y-112733095D01*
X146772380Y-112637857D01*
X146772380Y-112399761D01*
X146820000Y-112304523D01*
X146867619Y-112256904D01*
X146962857Y-112209285D01*
X147058095Y-112209285D01*
X147200952Y-112256904D01*
X147772380Y-112828333D01*
X147772380Y-112209285D01*
%TO.C,D3*%
X156222380Y-113733095D02*
X155222380Y-113733095D01*
X155222380Y-113495000D01*
X155270000Y-113352142D01*
X155365238Y-113256904D01*
X155460476Y-113209285D01*
X155650952Y-113161666D01*
X155793809Y-113161666D01*
X155984285Y-113209285D01*
X156079523Y-113256904D01*
X156174761Y-113352142D01*
X156222380Y-113495000D01*
X156222380Y-113733095D01*
X155222380Y-112828333D02*
X155222380Y-112209285D01*
X155603333Y-112542619D01*
X155603333Y-112399761D01*
X155650952Y-112304523D01*
X155698571Y-112256904D01*
X155793809Y-112209285D01*
X156031904Y-112209285D01*
X156127142Y-112256904D01*
X156174761Y-112304523D01*
X156222380Y-112399761D01*
X156222380Y-112685476D01*
X156174761Y-112780714D01*
X156127142Y-112828333D01*
%TO.C,D4*%
X144132380Y-106945095D02*
X143132380Y-106945095D01*
X143132380Y-106707000D01*
X143180000Y-106564142D01*
X143275238Y-106468904D01*
X143370476Y-106421285D01*
X143560952Y-106373666D01*
X143703809Y-106373666D01*
X143894285Y-106421285D01*
X143989523Y-106468904D01*
X144084761Y-106564142D01*
X144132380Y-106707000D01*
X144132380Y-106945095D01*
X143465714Y-105516523D02*
X144132380Y-105516523D01*
X143084761Y-105754619D02*
X143799047Y-105992714D01*
X143799047Y-105373666D01*
%TO.C,D5*%
X155682380Y-106945095D02*
X154682380Y-106945095D01*
X154682380Y-106707000D01*
X154730000Y-106564142D01*
X154825238Y-106468904D01*
X154920476Y-106421285D01*
X155110952Y-106373666D01*
X155253809Y-106373666D01*
X155444285Y-106421285D01*
X155539523Y-106468904D01*
X155634761Y-106564142D01*
X155682380Y-106707000D01*
X155682380Y-106945095D01*
X154682380Y-105468904D02*
X154682380Y-105945095D01*
X155158571Y-105992714D01*
X155110952Y-105945095D01*
X155063333Y-105849857D01*
X155063333Y-105611761D01*
X155110952Y-105516523D01*
X155158571Y-105468904D01*
X155253809Y-105421285D01*
X155491904Y-105421285D01*
X155587142Y-105468904D01*
X155634761Y-105516523D01*
X155682380Y-105611761D01*
X155682380Y-105849857D01*
X155634761Y-105945095D01*
X155587142Y-105992714D01*
%TO.C,R1*%
X124743380Y-94299666D02*
X124267190Y-94633000D01*
X124743380Y-94871095D02*
X123743380Y-94871095D01*
X123743380Y-94490142D01*
X123791000Y-94394904D01*
X123838619Y-94347285D01*
X123933857Y-94299666D01*
X124076714Y-94299666D01*
X124171952Y-94347285D01*
X124219571Y-94394904D01*
X124267190Y-94490142D01*
X124267190Y-94871095D01*
X124743380Y-93347285D02*
X124743380Y-93918714D01*
X124743380Y-93633000D02*
X123743380Y-93633000D01*
X123886238Y-93728238D01*
X123981476Y-93823476D01*
X124029095Y-93918714D01*
%TO.C,R2*%
X150772380Y-113116666D02*
X150296190Y-113450000D01*
X150772380Y-113688095D02*
X149772380Y-113688095D01*
X149772380Y-113307142D01*
X149820000Y-113211904D01*
X149867619Y-113164285D01*
X149962857Y-113116666D01*
X150105714Y-113116666D01*
X150200952Y-113164285D01*
X150248571Y-113211904D01*
X150296190Y-113307142D01*
X150296190Y-113688095D01*
X149867619Y-112735714D02*
X149820000Y-112688095D01*
X149772380Y-112592857D01*
X149772380Y-112354761D01*
X149820000Y-112259523D01*
X149867619Y-112211904D01*
X149962857Y-112164285D01*
X150058095Y-112164285D01*
X150200952Y-112211904D01*
X150772380Y-112783333D01*
X150772380Y-112164285D01*
%TO.C,R3*%
X159272380Y-113116666D02*
X158796190Y-113450000D01*
X159272380Y-113688095D02*
X158272380Y-113688095D01*
X158272380Y-113307142D01*
X158320000Y-113211904D01*
X158367619Y-113164285D01*
X158462857Y-113116666D01*
X158605714Y-113116666D01*
X158700952Y-113164285D01*
X158748571Y-113211904D01*
X158796190Y-113307142D01*
X158796190Y-113688095D01*
X158272380Y-112783333D02*
X158272380Y-112164285D01*
X158653333Y-112497619D01*
X158653333Y-112354761D01*
X158700952Y-112259523D01*
X158748571Y-112211904D01*
X158843809Y-112164285D01*
X159081904Y-112164285D01*
X159177142Y-112211904D01*
X159224761Y-112259523D01*
X159272380Y-112354761D01*
X159272380Y-112640476D01*
X159224761Y-112735714D01*
X159177142Y-112783333D01*
%TO.C,R4*%
X147132380Y-106418666D02*
X146656190Y-106752000D01*
X147132380Y-106990095D02*
X146132380Y-106990095D01*
X146132380Y-106609142D01*
X146180000Y-106513904D01*
X146227619Y-106466285D01*
X146322857Y-106418666D01*
X146465714Y-106418666D01*
X146560952Y-106466285D01*
X146608571Y-106513904D01*
X146656190Y-106609142D01*
X146656190Y-106990095D01*
X146465714Y-105561523D02*
X147132380Y-105561523D01*
X146084761Y-105799619D02*
X146799047Y-106037714D01*
X146799047Y-105418666D01*
%TO.C,R5*%
X152632380Y-106418666D02*
X152156190Y-106752000D01*
X152632380Y-106990095D02*
X151632380Y-106990095D01*
X151632380Y-106609142D01*
X151680000Y-106513904D01*
X151727619Y-106466285D01*
X151822857Y-106418666D01*
X151965714Y-106418666D01*
X152060952Y-106466285D01*
X152108571Y-106513904D01*
X152156190Y-106609142D01*
X152156190Y-106990095D01*
X151632380Y-105513904D02*
X151632380Y-105990095D01*
X152108571Y-106037714D01*
X152060952Y-105990095D01*
X152013333Y-105894857D01*
X152013333Y-105656761D01*
X152060952Y-105561523D01*
X152108571Y-105513904D01*
X152203809Y-105466285D01*
X152441904Y-105466285D01*
X152537142Y-105513904D01*
X152584761Y-105561523D01*
X152632380Y-105656761D01*
X152632380Y-105894857D01*
X152584761Y-105990095D01*
X152537142Y-106037714D01*
%TO.C,R6*%
X132632380Y-106166666D02*
X132156190Y-106500000D01*
X132632380Y-106738095D02*
X131632380Y-106738095D01*
X131632380Y-106357142D01*
X131680000Y-106261904D01*
X131727619Y-106214285D01*
X131822857Y-106166666D01*
X131965714Y-106166666D01*
X132060952Y-106214285D01*
X132108571Y-106261904D01*
X132156190Y-106357142D01*
X132156190Y-106738095D01*
X131632380Y-105309523D02*
X131632380Y-105500000D01*
X131680000Y-105595238D01*
X131727619Y-105642857D01*
X131870476Y-105738095D01*
X132060952Y-105785714D01*
X132441904Y-105785714D01*
X132537142Y-105738095D01*
X132584761Y-105690476D01*
X132632380Y-105595238D01*
X132632380Y-105404761D01*
X132584761Y-105309523D01*
X132537142Y-105261904D01*
X132441904Y-105214285D01*
X132203809Y-105214285D01*
X132108571Y-105261904D01*
X132060952Y-105309523D01*
X132013333Y-105404761D01*
X132013333Y-105595238D01*
X132060952Y-105690476D01*
X132108571Y-105738095D01*
X132203809Y-105785714D01*
%TO.C,U1*%
X114468095Y-110012380D02*
X114468095Y-110821904D01*
X114515714Y-110917142D01*
X114563333Y-110964761D01*
X114658571Y-111012380D01*
X114849047Y-111012380D01*
X114944285Y-110964761D01*
X114991904Y-110917142D01*
X115039523Y-110821904D01*
X115039523Y-110012380D01*
X116039523Y-111012380D02*
X115468095Y-111012380D01*
X115753809Y-111012380D02*
X115753809Y-110012380D01*
X115658571Y-110155238D01*
X115563333Y-110250476D01*
X115468095Y-110298095D01*
%TO.C,U2*%
X131352380Y-106761904D02*
X132161904Y-106761904D01*
X132257142Y-106714285D01*
X132304761Y-106666666D01*
X132352380Y-106571428D01*
X132352380Y-106380952D01*
X132304761Y-106285714D01*
X132257142Y-106238095D01*
X132161904Y-106190476D01*
X131352380Y-106190476D01*
X131447619Y-105761904D02*
X131400000Y-105714285D01*
X131352380Y-105619047D01*
X131352380Y-105380952D01*
X131400000Y-105285714D01*
X131447619Y-105238095D01*
X131542857Y-105190476D01*
X131638095Y-105190476D01*
X131780952Y-105238095D01*
X132352380Y-105809523D01*
X132352380Y-105190476D01*
%TO.C,J1*%
X126047380Y-122380333D02*
X126761666Y-122380333D01*
X126904523Y-122427952D01*
X126999761Y-122523190D01*
X127047380Y-122666047D01*
X127047380Y-122761285D01*
X127047380Y-121380333D02*
X127047380Y-121951761D01*
X127047380Y-121666047D02*
X126047380Y-121666047D01*
X126190238Y-121761285D01*
X126285476Y-121856523D01*
X126333095Y-121951761D01*
%TO.C,J2*%
X148526380Y-98504333D02*
X149240666Y-98504333D01*
X149383523Y-98551952D01*
X149478761Y-98647190D01*
X149526380Y-98790047D01*
X149526380Y-98885285D01*
X148621619Y-98075761D02*
X148574000Y-98028142D01*
X148526380Y-97932904D01*
X148526380Y-97694809D01*
X148574000Y-97599571D01*
X148621619Y-97551952D01*
X148716857Y-97504333D01*
X148812095Y-97504333D01*
X148954952Y-97551952D01*
X149526380Y-98123380D01*
X149526380Y-97504333D01*
%TO.C,J3*%
X119222380Y-94333333D02*
X119936666Y-94333333D01*
X120079523Y-94380952D01*
X120174761Y-94476190D01*
X120222380Y-94619047D01*
X120222380Y-94714285D01*
X119222380Y-93952380D02*
X119222380Y-93333333D01*
X119603333Y-93666666D01*
X119603333Y-93523809D01*
X119650952Y-93428571D01*
X119698571Y-93380952D01*
X119793809Y-93333333D01*
X120031904Y-93333333D01*
X120127142Y-93380952D01*
X120174761Y-93428571D01*
X120222380Y-93523809D01*
X120222380Y-93809523D01*
X120174761Y-93904761D01*
X120127142Y-93952380D01*
%TO.C,J4*%
X135493380Y-122380333D02*
X136207666Y-122380333D01*
X136350523Y-122427952D01*
X136445761Y-122523190D01*
X136493380Y-122666047D01*
X136493380Y-122761285D01*
X135826714Y-121475571D02*
X136493380Y-121475571D01*
X135445761Y-121713666D02*
X136160047Y-121951761D01*
X136160047Y-121332714D01*
%TO.C,J5*%
X123555380Y-115522333D02*
X124269666Y-115522333D01*
X124412523Y-115569952D01*
X124507761Y-115665190D01*
X124555380Y-115808047D01*
X124555380Y-115903285D01*
X123555380Y-114569952D02*
X123555380Y-115046142D01*
X124031571Y-115093761D01*
X123983952Y-115046142D01*
X123936333Y-114950904D01*
X123936333Y-114712809D01*
X123983952Y-114617571D01*
X124031571Y-114569952D01*
X124126809Y-114522333D01*
X124364904Y-114522333D01*
X124460142Y-114569952D01*
X124507761Y-114617571D01*
X124555380Y-114712809D01*
X124555380Y-114950904D01*
X124507761Y-115046142D01*
X124460142Y-115093761D01*
%TO.C,D6*%
X133467381Y-98250595D02*
X132467381Y-98250595D01*
X132467381Y-98012500D01*
X132515001Y-97869642D01*
X132610239Y-97774404D01*
X132705477Y-97726785D01*
X132895953Y-97679166D01*
X133038810Y-97679166D01*
X133229286Y-97726785D01*
X133324524Y-97774404D01*
X133419762Y-97869642D01*
X133467381Y-98012500D01*
X133467381Y-98250595D01*
X132467381Y-96822023D02*
X132467381Y-97012500D01*
X132515001Y-97107738D01*
X132562620Y-97155357D01*
X132705477Y-97250595D01*
X132895953Y-97298214D01*
X133276905Y-97298214D01*
X133372143Y-97250595D01*
X133419762Y-97202976D01*
X133467381Y-97107738D01*
X133467381Y-96917261D01*
X133419762Y-96822023D01*
X133372143Y-96774404D01*
X133276905Y-96726785D01*
X133038810Y-96726785D01*
X132943572Y-96774404D01*
X132895953Y-96822023D01*
X132848334Y-96917261D01*
X132848334Y-97107738D01*
X132895953Y-97202976D01*
X132943572Y-97250595D01*
X133038810Y-97298214D01*
%TO.C,R7*%
X135772380Y-97666666D02*
X135296190Y-98000000D01*
X135772380Y-98238095D02*
X134772380Y-98238095D01*
X134772380Y-97857142D01*
X134820000Y-97761904D01*
X134867619Y-97714285D01*
X134962857Y-97666666D01*
X135105714Y-97666666D01*
X135200952Y-97714285D01*
X135248571Y-97761904D01*
X135296190Y-97857142D01*
X135296190Y-98238095D01*
X134772380Y-97333333D02*
X134772380Y-96666666D01*
X135772380Y-97095238D01*
%TO.C,C1*%
X115333333Y-96607142D02*
X115285714Y-96654761D01*
X115142857Y-96702380D01*
X115047619Y-96702380D01*
X114904761Y-96654761D01*
X114809523Y-96559523D01*
X114761904Y-96464285D01*
X114714285Y-96273809D01*
X114714285Y-96130952D01*
X114761904Y-95940476D01*
X114809523Y-95845238D01*
X114904761Y-95750000D01*
X115047619Y-95702380D01*
X115142857Y-95702380D01*
X115285714Y-95750000D01*
X115333333Y-95797619D01*
X116285714Y-96702380D02*
X115714285Y-96702380D01*
X116000000Y-96702380D02*
X116000000Y-95702380D01*
X115904761Y-95845238D01*
X115809523Y-95940476D01*
X115714285Y-95988095D01*
%TO.C,C2*%
X114833333Y-117607142D02*
X114785714Y-117654761D01*
X114642857Y-117702380D01*
X114547619Y-117702380D01*
X114404761Y-117654761D01*
X114309523Y-117559523D01*
X114261904Y-117464285D01*
X114214285Y-117273809D01*
X114214285Y-117130952D01*
X114261904Y-116940476D01*
X114309523Y-116845238D01*
X114404761Y-116750000D01*
X114547619Y-116702380D01*
X114642857Y-116702380D01*
X114785714Y-116750000D01*
X114833333Y-116797619D01*
X115214285Y-116797619D02*
X115261904Y-116750000D01*
X115357142Y-116702380D01*
X115595238Y-116702380D01*
X115690476Y-116750000D01*
X115738095Y-116797619D01*
X115785714Y-116892857D01*
X115785714Y-116988095D01*
X115738095Y-117130952D01*
X115166666Y-117702380D01*
X115785714Y-117702380D01*
%TO.C,C3*%
X114768333Y-119682142D02*
X114720714Y-119729761D01*
X114577857Y-119777380D01*
X114482619Y-119777380D01*
X114339761Y-119729761D01*
X114244523Y-119634523D01*
X114196904Y-119539285D01*
X114149285Y-119348809D01*
X114149285Y-119205952D01*
X114196904Y-119015476D01*
X114244523Y-118920238D01*
X114339761Y-118825000D01*
X114482619Y-118777380D01*
X114577857Y-118777380D01*
X114720714Y-118825000D01*
X114768333Y-118872619D01*
X115101666Y-118777380D02*
X115720714Y-118777380D01*
X115387380Y-119158333D01*
X115530238Y-119158333D01*
X115625476Y-119205952D01*
X115673095Y-119253571D01*
X115720714Y-119348809D01*
X115720714Y-119586904D01*
X115673095Y-119682142D01*
X115625476Y-119729761D01*
X115530238Y-119777380D01*
X115244523Y-119777380D01*
X115149285Y-119729761D01*
X115101666Y-119682142D01*
%TO.C,C4*%
X120046142Y-105615166D02*
X120093761Y-105662785D01*
X120141380Y-105805642D01*
X120141380Y-105900880D01*
X120093761Y-106043738D01*
X119998523Y-106138976D01*
X119903285Y-106186595D01*
X119712809Y-106234214D01*
X119569952Y-106234214D01*
X119379476Y-106186595D01*
X119284238Y-106138976D01*
X119189000Y-106043738D01*
X119141380Y-105900880D01*
X119141380Y-105805642D01*
X119189000Y-105662785D01*
X119236619Y-105615166D01*
X119474714Y-104758023D02*
X120141380Y-104758023D01*
X119093761Y-104996119D02*
X119808047Y-105234214D01*
X119808047Y-104615166D01*
%TD*%
M02*
